# xmcd CD database file
#
# Track frame offsets:
#	150
#	13625
#	33683
#	54845
#	77978
#	93780
#	104573
#	127964
#	143236
#	159560
#	174007
#	188412
#	201539
#	217772
#	238648
#	253251
#	269366
#	285537
#	310154
#	329571
#
# Disc length: 4603 seconds
#
# Revision: 0
# Processed by: cddbd v1.5.2PL0 Copyright (c) Steve Scherf et al.
# Submitted via: CDex 1.70beta2
#
DISCID=1711f914
DTITLE=John Prine - Great Days - The John Prine Anthology - Disc II
DYEAR=1900
DGENRE=Blues
TTITLE0=Sabu Visits The Twin Cities Alone
TTITLE1=Automobile
TTITLE2=Killing The Blues
TTITLE3=Down By The Side Of The Road
TTITLE4=Living In The Future
TTITLE5=It's Happening To You
TTITLE6=Storm Windows
TTITLE7=One Red Rose
TTITLE8=Souvenirs - Steve Goodman
TTITLE9=Aimless Love
TTITLE10=The Oldest Baby In The World
TTITLE11=People Puttin' People Down
TTITLE12=Unwed Fathers
TTITLE13=Angel From Montgomery (Live)
TTITLE14=Linda Goes To Mars
TTITLE15=Bad Boy
TTITLE16=Speed Of The Sound Of Loneliness (Live)
TTITLE17=It's A Big Old Goofy World (Live)
TTITLE18=The Sins Of Memphisto
TTITLE19=All The Best
EXTD=
EXTT0=
EXTT1=
EXTT2=
EXTT3=
EXTT4=
EXTT5=
EXTT6=
EXTT7=
EXTT8=
EXTT9=
EXTT10=
EXTT11=
EXTT12=
EXTT13=
EXTT14=
EXTT15=
EXTT16=
EXTT17=
EXTT18=
EXTT19=
PLAYORDER=
